<svg width="18" height="18" viewBox="0 0 18 18" fill="none" xmlns="http://www.w3.org/2000/svg">
<path d="M9 4.94118C8.19724 4.94118 7.41251 5.17922 6.74504 5.62521C6.07757 6.0712 5.55734 6.7051 5.25014 7.44676C4.94293 8.18841 4.86256 9.0045 5.01917 9.79184C5.17578 10.5792 5.56234 11.3024 6.12998 11.87C6.69762 12.4377 7.42083 12.8242 8.20816 12.9808C8.9955 13.1374 9.81159 13.0571 10.5532 12.7499C11.2949 12.4427 11.9288 11.9224 12.3748 11.255C12.8208 10.5875 13.0588 9.80276 13.0588 9C13.0574 7.92396 12.6293 6.8924 11.8685 6.13153C11.1076 5.37065 10.076 4.94258 9 4.94118ZM9 12C8.40666 12 7.82664 11.8241 7.33329 11.4944C6.83994 11.1648 6.45542 10.6962 6.22836 10.1481C6.0013 9.59987 5.94189 8.99667 6.05764 8.41473C6.1734 7.83279 6.45912 7.29824 6.87868 6.87868C7.29824 6.45912 7.83279 6.1734 8.41473 6.05764C8.99667 5.94189 9.59987 6.0013 10.1481 6.22836C10.6962 6.45542 11.1648 6.83994 11.4944 7.33329C11.8241 7.82664 12 8.40666 12 9C12 9.79565 11.6839 10.5587 11.1213 11.1213C10.5587 11.6839 9.79565 12 9 12ZM13.2353 0H4.76471C3.50146 0.00140128 2.29035 0.503846 1.3971 1.3971C0.503846 2.29035 0.00140128 3.50146 0 4.76471V13.2353C0.00140128 14.4985 0.503846 15.7097 1.3971 16.6029C2.29035 17.4962 3.50146 17.9986 4.76471 18H13.2353C14.4985 17.9986 15.7097 17.4962 16.6029 16.6029C17.4962 15.7097 17.9986 14.4985 18 13.2353V4.76471C17.9986 3.50146 17.4962 2.29035 16.6029 1.3971C15.7097 0.503846 14.4985 0.00140128 13.2353 0ZM16.9412 13.2353C16.9412 14.2182 16.5507 15.1608 15.8557 15.8557C15.1608 16.5507 14.2182 16.9412 13.2353 16.9412H4.76471C3.78184 16.9412 2.83924 16.5507 2.14425 15.8557C1.44926 15.1608 1.05882 14.2182 1.05882 13.2353V4.76471C1.05882 3.78184 1.44926 2.83924 2.14425 2.14425C2.83924 1.44926 3.78184 1.05882 4.76471 1.05882H13.2353C14.2182 1.05882 15.1608 1.44926 15.8557 2.14425C16.5507 2.83924 16.9412 3.78184 16.9412 4.76471V13.2353ZM14.4706 4.41176C14.4706 4.58628 14.4188 4.75687 14.3219 4.90197C14.2249 5.04708 14.0871 5.16017 13.9259 5.22695C13.7647 5.29374 13.5873 5.31121 13.4161 5.27716C13.2449 5.24312 13.0877 5.15908 12.9643 5.03568C12.8409 4.91228 12.7569 4.75506 12.7228 4.5839C12.6888 4.41274 12.7063 4.23533 12.773 4.0741C12.8398 3.91287 12.9529 3.77507 13.098 3.67812C13.2431 3.58116 13.4137 3.52941 13.5882 3.52941C13.8223 3.52941 14.0467 3.62237 14.2122 3.78785C14.3776 3.95332 14.4706 4.17775 14.4706 4.41176Z" fill="#1E1E1E"/>
</svg>
